<svg  xmlns="http://www.w3.org/2000/svg" viewBox="0 0 200 204">
  <path d="M 179 8 Z M 132.1749 -0 C 166.1685 0.2004 199.7621 28.4558 199.7621 69.6365 C 199.7621 69.6365 199.9829 80.6368 199.9991 93.7327 L 199.9995 96.2638 C 199.997 99.0993 199.984 102.004 199.9565 104.8921 L 199.9381 106.6222 C 199.8104 117.5585 199.4601 128.007 198.6623 133.2613 C 193.9632 164.723 170.4677 186.4656 138.0738 191.9764 C 108.8793 197.6876 91.5826 200.9941 85.9837 202.0963 C 84.5722 202.391 80.3239 202.9977 76.1284 203.4474 L 75.2909 203.5351 C 72.6464 203.8053 70.1004 204 68.387 204 C 32.7938 204 0.4999 177.3477 0 134.3635 L 0.0009 132.2118 C 0.0009 132.106 0.001 131.9966 0.0011 131.8837 L 0.002 130.7761 C 0.0065 125.5889 0.0213 115.4815 0.0702 105.1791 L 0.0821 102.8003 L 0.0821 102.8003 L 0.0908 101.2169 C 0.1488 90.9421 0.244 81.078 0.3999 76.3497 C 1.5997 44.9882 23.2956 19.6385 64.5877 11.5226 L 64.6475 11.511 C 66.588 11.1336 115.1202 1.6953 117.1778 1.3026 C 121.9769 0.4008 127.2758 -0 132.1749 -0 Z Z M 155.9704 36.5717 L 75.9856 52.1022 L 75.9856 83.3635 L 43.9917 89.5756 L 43.9917 167.5285 L 123.9765 151.998 L 123.9765 120.7367 L 155.9704 114.5246 L 155.9704 36.5717 Z Z Z M 123.9765 74.0452 L 123.9765 120.7367 L 75.9856 130.055 L 75.9856 83.3635 L 123.9765 74.0452 Z Z" fill="#0c74db"/>
</svg>